# 3ds Max Wavefront OBJ Exporter v0.97b - (c)2007 guruware
# File Created: 01.04.2017 19:57:55

mtllib DesertTree04.mtl

#
# object Cylinder001
#

v  4.7999 0.0000 7.9908
v  7.9730 0.0000 -9.1409
v  7.9730 7.2000 -9.1409
v  4.7999 7.2000 7.9908
v  -7.3396 0.0000 -17.4527
v  -7.3396 7.2000 -17.4527
v  -19.9765 0.0000 -5.4580
v  -19.9765 7.2000 -5.4580
v  -12.4739 0.0000 10.2669
v  -12.4739 7.2000 10.2669
v  0.6787 20.7624 -11.9853
v  -1.7443 20.7624 1.0963
v  -11.0139 20.7624 -18.3322
v  -20.6633 20.7624 -9.1732
v  -14.9344 20.7624 2.8343
v  2.8146 35.9648 -15.7648
v  1.2721 35.9648 -7.4370
v  -4.6290 35.9648 -19.8053
v  -10.7719 35.9648 -13.9746
v  -7.1248 35.9648 -6.3305
v  -5.7254 60.3692 -7.3417
v  -7.4273 60.3692 1.8468
v  -13.9382 60.3692 -11.7997
v  -20.7160 60.3692 -5.3664
v  -16.6920 60.3692 3.0676
v  -8.2612 89.2560 -26.3605
v  -9.2644 89.2560 -20.9446
v  -13.1020 89.2560 -28.9881
v  -17.0969 89.2560 -25.1962
v  -14.7251 89.2560 -20.2251
v  -18.2860 116.4128 -23.0761
v  -19.1427 114.6363 -18.8056
v  -22.4202 117.2747 -25.1481
v  -25.8320 116.0309 -22.1581
v  -23.8064 114.4002 -18.2382
v  -28.3108 134.6954 -2.6529
v  -36.6634 149.3223 3.8954
v  -29.0211 132.5101 0.4983
v  -31.7384 135.7557 -4.1818
v  -34.5672 134.2256 -1.9755
v  -32.8877 132.2197 0.9170
v  -7.5127 42.9504 -11.0354
v  3.5175 46.8668 -31.0705
v  0.1762 39.7347 -34.3042
v  -10.8540 35.8183 -14.2691
v  -0.1043 40.9485 -7.3481
v  10.9258 44.8649 -27.3832
v  1.1330 32.5793 -8.3029
v  12.1632 36.4956 -28.3380
v  -5.5106 29.4086 -12.5803
v  5.5195 33.3250 -32.6154
v  14.7532 53.0649 -38.2374
v  15.3105 53.4087 -45.3347
v  21.2351 52.9128 -35.8381
v  25.7985 53.1626 -41.4526
v  22.1369 53.4691 -47.3218
v  14.7560 77.7308 -59.6630
v  15.0163 77.8914 -62.9770
v  17.7826 77.6598 -58.5427
v  19.9134 77.7764 -61.1643
v  18.2037 77.9196 -63.9048
v  7.3169 93.7156 -51.0174
v  -7.5114 65.0342 -7.9944
v  -14.1586 70.4611 6.5032
v  -13.0136 64.9631 9.0863
v  -6.3665 59.5362 -5.4114
v  -13.1564 64.8268 -10.5050
v  -19.8035 70.2537 3.9927
v  -15.5002 59.2006 -9.4735
v  -22.1473 64.6275 5.0241
v  -11.3038 55.9308 -6.3255
v  -17.9509 61.3577 8.1721
v  -20.3849 78.3017 18.7893
v  -20.8470 77.8816 23.8476
v  -25.0043 79.2579 16.8598
v  -28.3213 79.4288 20.7256
v  -25.7519 78.5782 25.0443
v  -4.6489 103.4922 10.5507
v  -4.6912 102.4281 13.3967
v  -7.4810 103.3610 9.4570
v  -9.2735 102.2158 11.6271
v  -7.5493 101.6393 14.0620
v  3.1439 118.4973 28.7369
v  -11.6332 92.6684 -21.5839
v  -7.2309 93.6918 -34.3745
v  -11.8153 92.6869 -36.0328
v  -16.2176 91.6636 -23.2422
v  -9.1966 88.3562 -21.0902
v  -4.7942 89.3796 -33.8808
v  -12.2750 84.6863 -22.4434
v  -7.8727 85.7096 -35.2340
v  -16.6143 86.7304 -23.7734
v  -12.2119 87.7537 -36.5640
v  -18.8526 101.4318 -50.4542
v  -20.3070 100.5826 -49.7672
v  -18.1456 100.3735 -51.7537
v  -19.1630 98.8702 -51.8697
v  -20.4989 98.9995 -50.6419
v  -29.7102 104.0957 -71.6815
# 99 vertices

vn 0.9833 0.0000 0.1821
vn 0.4771 0.0000 -0.8789
vn -0.6884 0.0000 -0.7253
vn -0.9025 0.0000 0.4306
vn 0.1306 0.0000 0.9914
vn 0.0000 -1.0000 -0.0000
vn 0.8553 0.4933 0.1584
vn 0.4758 0.0721 -0.8766
vn -0.6704 -0.2274 -0.7063
vn -0.9002 0.0721 0.4295
vn 0.1136 0.4933 0.8624
vn 0.9791 -0.0925 0.1813
vn 0.4587 -0.2746 -0.8451
vn -0.6725 0.2138 -0.7085
vn -0.7313 0.5860 0.3489
vn 0.1154 0.4687 0.8758
vn 0.9466 0.2707 0.1753
vn 0.4317 0.4256 -0.7953
vn -0.6882 -0.0247 -0.7251
vn -0.8009 -0.4611 0.3821
vn 0.1240 -0.3139 0.9413
vn 0.9630 0.2020 0.1784
vn 0.4203 -0.4729 -0.7744
vn -0.6366 -0.3807 -0.6707
vn -0.8355 0.3783 0.3986
vn 0.1025 0.6202 0.7778
vn 0.9167 0.3230 0.2353
vn 0.4667 0.2723 -0.8414
vn -0.6587 -0.1239 -0.7421
vn -0.8679 -0.3335 0.3681
vn 0.1268 -0.0334 0.9914
vn 0.8595 0.3084 0.4076
vn 0.4752 0.5710 -0.6694
vn -0.6654 0.1885 -0.7223
vn -0.9024 -0.2592 0.3442
vn 0.1173 -0.1452 0.9824
vn -0.7874 0.5194 -0.3320
vn 0.1299 0.9572 0.2586
vn 0.8677 0.0722 0.4918
vn 0.4064 -0.9126 0.0453
vn -0.6166 -0.6362 -0.4638
vn -0.4754 -0.1688 0.8634
vn -0.6889 0.6769 -0.2591
vn -0.1238 0.8123 0.5700
vn 0.7052 -0.0672 0.7058
vn 0.5650 -0.7401 -0.3649
vn -0.2458 -0.4303 -0.8686
vn -0.9942 -0.0707 -0.0815
vn -0.2553 0.6341 0.7299
vn 0.6225 0.5745 0.5315
vn 0.8217 -0.2234 -0.5243
vn -0.2247 -0.5715 -0.7893
vn -0.9208 -0.3795 -0.0907
vn -0.2996 -0.5580 0.7739
vn 0.7559 0.2006 0.6233
vn 0.6156 0.7075 -0.3471
vn -0.2452 0.5058 -0.8271
vn 0.9000 0.3243 0.2913
vn 0.1020 0.9461 -0.3074
vn -0.8370 0.2605 -0.4813
vn -0.6192 -0.7851 0.0100
vn 0.4543 -0.7457 0.4874
vn 0.3946 -0.3221 -0.8606
vn 0.9117 0.3602 0.1975
vn 0.2585 0.8528 -0.4537
vn -0.7730 0.3008 -0.5585
vn -0.7183 -0.6248 0.3061
vn 0.2137 -0.6524 0.7272
vn 0.8320 -0.5525 -0.0507
vn 0.2892 -0.4613 -0.8388
vn -0.7362 0.3763 -0.5625
vn -0.5558 0.6682 0.4946
vn 0.2221 0.2625 0.9390
vn 0.9317 -0.3445 -0.1150
vn 0.2286 0.7006 -0.6760
vn -0.6781 0.7113 -0.1848
vn -0.8147 0.0121 0.5798
vn 0.3395 -0.7308 0.5921
vn -0.2155 0.9765 0.0040
vn 0.8093 0.4937 0.3181
vn 0.7157 -0.6713 0.1926
vn -0.3670 -0.9087 -0.1990
vn -0.9425 0.1098 -0.3156
vn -0.3245 -0.0754 0.9429
vn -0.3214 0.7320 0.6007
vn 0.8012 0.5148 -0.3052
vn 0.6509 -0.3198 -0.6886
vn -0.3098 -0.8307 -0.4626
vn -0.8649 -0.0300 0.5011
vn -0.3712 0.8787 0.3002
vn 0.6457 0.7251 -0.2393
vn 0.7306 -0.4552 -0.5090
vn -0.2199 -0.9658 -0.1376
vn -0.9201 -0.0980 0.3791
vn 0.9359 0.1879 0.2979
vn 0.4245 0.7663 -0.4823
vn -0.6861 0.3670 -0.6281
vn -0.8153 -0.5608 0.1441
vn 0.1247 -0.6958 0.7073
# 99 vertex normals

vt 0.7500 0.0000 1.0000
vt 0.9500 0.0000 1.0000
vt 0.9500 1.0000 1.0000
vt 0.7500 1.0000 1.0000
vt 1.1500 0.0000 1.0000
vt 1.1500 1.0000 1.0000
vt 0.1500 0.0000 1.0000
vt 0.3500 0.0000 1.0000
vt 0.3500 1.0000 1.0000
vt 0.1500 1.0000 1.0000
vt 0.5500 0.0000 1.0000
vt 0.5500 1.0000 1.0000
vt 0.2061 0.0955 -0.2500
vt 0.0245 0.6545 -0.2500
vt 0.5000 1.0000 -0.2500
vt 0.7939 0.0955 -0.2500
vt 0.9755 0.6545 -0.2500
vt 0.9500 0.5000 1.0000
vt 0.7500 0.5000 1.0000
vt 1.1500 0.5000 1.0000
vt 0.3500 0.5000 1.0000
vt 0.1500 0.5000 1.0000
vt 0.5500 0.5000 1.0000
vt 0.6500 1.0000 1.0000
vt 0.4500 0.5000 1.0000
# 25 texture coords

g Cylinder001
usemtl 01___Default
s off
f 1/1/1 2/2/1 3/3/1 4/4/1 
f 2/2/2 5/5/2 6/6/2 3/3/2 
f 5/7/3 7/8/3 8/9/3 6/10/3 
f 7/8/4 9/11/4 10/12/4 8/9/4 
f 9/11/5 1/1/5 4/4/5 10/12/5 
f 5/13/6 2/14/6 1/15/6 7/16/6 
f 9/17/6 7/16/6 1/15/6 
f 4/4/7 3/3/7 11/3/7 12/4/7 
f 3/3/8 6/6/8 13/6/8 11/3/8 
f 6/10/9 8/9/9 14/9/9 13/10/9 
f 8/9/10 10/12/10 15/12/10 14/9/10 
f 10/12/11 4/4/11 12/4/11 15/12/11 
f 12/4/12 11/3/12 16/3/12 17/4/12 
f 11/3/13 13/6/13 18/6/13 16/3/13 
f 13/10/14 14/9/14 19/9/14 18/10/14 
f 14/9/15 15/12/15 20/12/15 19/9/15 
f 15/12/16 12/4/16 17/4/16 20/12/16 
f 17/4/17 16/3/17 21/3/17 22/4/17 
f 16/3/18 18/6/18 23/6/18 21/3/18 
f 18/10/19 19/9/19 24/9/19 23/10/19 
f 19/9/20 20/12/20 25/12/20 24/9/20 
f 20/12/21 17/4/21 22/4/21 25/12/21 
f 22/4/22 21/3/22 26/3/22 27/4/22 
f 21/3/23 23/6/23 28/6/23 26/3/23 
f 23/10/24 24/9/24 29/9/24 28/10/24 
f 24/9/25 25/12/25 30/12/25 29/9/25 
f 25/12/26 22/4/26 27/4/26 30/12/26 
f 27/4/27 26/3/27 31/3/27 32/4/27 
f 28/6/28 33/6/28 31/3/28 26/3/28 
f 29/9/29 34/9/29 33/10/29 28/10/29 
f 30/12/30 35/12/30 34/9/30 29/9/30 
f 30/12/31 27/4/31 32/4/31 35/12/31 
f 36/3/32 37/3/32 38/4/32 
f 39/6/33 37/3/33 36/3/33 
f 40/9/34 37/9/34 39/10/34 
f 41/12/35 37/9/35 40/9/35 
f 38/4/36 37/9/36 41/12/36 
f 42/2/37 43/18/37 44/19/37 45/1/37 
f 46/5/38 47/20/38 43/18/38 42/2/38 
f 48/8/39 49/21/39 47/22/39 46/7/39 
f 50/11/40 51/23/40 49/21/40 48/8/40 
f 45/1/41 44/19/41 51/23/41 50/11/41 
f 46/13/42 42/14/42 45/15/42 48/16/42 
f 50/17/42 48/16/42 45/15/42 
f 52/3/43 53/4/43 44/19/43 43/18/43 
f 54/6/44 52/3/44 43/18/44 47/20/44 
f 55/9/45 54/10/45 47/22/45 49/21/45 
f 56/12/46 55/9/46 49/21/46 51/23/46 
f 53/4/47 56/12/47 51/23/47 44/19/47 
f 53/4/48 52/3/48 57/3/48 58/4/48 
f 52/3/49 54/6/49 59/6/49 57/3/49 
f 54/10/50 55/9/50 60/9/50 59/10/50 
f 55/9/51 56/12/51 61/12/51 60/9/51 
f 56/12/52 53/4/52 58/4/52 61/12/52 
f 58/4/53 57/3/53 62/3/53 
f 57/3/54 59/6/54 62/3/54 
f 59/10/55 60/9/55 62/9/55 
f 60/9/56 61/12/56 62/9/56 
f 61/12/57 58/4/57 62/9/57 
f 63/2/58 64/18/58 65/19/58 66/1/58 
f 67/5/59 68/20/59 64/18/59 63/2/59 
f 69/8/60 70/21/60 68/22/60 67/7/60 
f 71/11/61 72/23/61 70/21/61 69/8/61 
f 66/1/62 65/19/62 72/23/62 71/11/62 
f 67/13/63 63/14/63 66/15/63 69/16/63 
f 71/17/63 69/16/63 66/15/63 
f 73/3/64 74/4/64 65/19/64 64/18/64 
f 75/6/65 73/3/65 64/18/65 68/20/65 
f 76/9/66 75/10/66 68/22/66 70/21/66 
f 77/12/67 76/9/67 70/21/67 72/23/67 
f 74/4/68 77/12/68 72/23/68 65/19/68 
f 74/4/69 73/3/69 78/3/69 79/4/69 
f 73/3/70 75/6/70 80/6/70 78/3/70 
f 75/10/71 76/9/71 81/9/71 80/10/71 
f 76/9/72 77/12/72 82/12/72 81/9/72 
f 77/12/73 74/4/73 79/4/73 82/12/73 
f 79/4/74 78/3/74 83/24/74 
f 78/3/75 80/6/75 83/24/75 
f 80/10/76 81/9/76 83/24/76 
f 81/9/77 82/12/77 83/24/77 
f 82/12/78 79/4/78 83/24/78 
f 84/2/79 85/18/79 86/19/79 87/1/79 
f 88/5/80 89/20/80 85/18/80 84/2/80 
f 90/8/81 91/21/81 89/22/81 88/7/81 
f 92/11/82 93/23/82 91/21/82 90/8/82 
f 87/1/83 86/19/83 93/23/83 92/11/83 
f 88/13/84 84/14/84 87/15/84 90/16/84 
f 92/17/84 90/16/84 87/15/84 
f 86/19/85 85/18/85 94/18/85 95/19/85 
f 85/18/86 89/20/86 96/20/86 94/18/86 
f 89/22/87 91/21/87 97/21/87 96/22/87 
f 91/21/88 93/23/88 98/23/88 97/21/88 
f 93/23/89 86/19/89 95/19/89 98/23/89 
f 95/19/90 94/18/90 99/18/90 
f 94/18/91 96/20/91 99/18/91 
f 96/22/92 97/21/92 99/22/92 
f 97/21/93 98/23/93 99/25/93 
f 98/23/94 95/19/94 99/25/94 
f 36/3/95 38/4/95 32/4/95 31/3/95 
f 33/6/96 39/6/96 36/3/96 31/3/96 
f 34/9/97 40/9/97 39/10/97 33/10/97 
f 35/12/98 41/12/98 40/9/98 34/9/98 
f 38/4/99 41/12/99 35/12/99 32/4/99 
# 79 polygons - 24 triangles

