# 3ds Max Wavefront OBJ Exporter v0.97b - (c)2007 guruware
# File Created: 01.04.2017 19:58:24

mtllib DesertTree01.mtl

#
# object Baum01
#

v  9.2176 0.0000 -0.3323
v  1.4224 0.0000 -15.9143
v  -5.0539 7.2022 -11.2938
v  0.8547 7.2022 0.5172
v  -15.8058 0.0000 -13.3158
v  -18.1128 7.2022 -9.3242
v  -18.6583 0.0000 3.8721
v  -20.2749 7.2022 3.7041
v  -3.1930 0.0000 11.8964
v  -8.5524 7.2022 9.7865
v  -5.0611 19.6820 -22.3340
v  0.0504 19.6820 -12.1162
v  -16.3583 19.6820 -20.6301
v  -18.2289 19.6820 -9.3592
v  -8.0877 19.6820 -4.0974
v  -6.6864 35.9648 -18.0900
v  -2.8971 35.9648 -10.5155
v  -15.0612 35.9648 -16.8269
v  -16.4478 35.9648 -8.4717
v  -8.9300 35.9648 -4.5710
v  4.3098 72.2918 -0.8251
v  7.5995 72.2918 5.7508
v  -2.9609 72.2918 0.2715
v  -4.1647 72.2918 7.5252
v  2.3620 72.2918 10.9116
v  -25.0434 91.4601 -1.2313
v  -22.9345 93.9174 3.2243
v  -30.3173 90.2680 -0.1816
v  -31.4679 91.9884 4.9227
v  -26.9050 94.2438 7.0277
v  -10.7506 111.5152 -13.4030
v  -9.2110 113.6774 -10.8812
v  -14.3983 111.3372 -12.6156
v  -15.1130 113.3894 -9.6072
v  -11.9071 114.8357 -8.5352
v  -17.9254 133.5265 -26.6792
v  -25.3663 145.1826 -13.4949
v  -16.7937 133.5265 -24.4169
v  -20.4267 133.5265 -26.3020
v  -20.8408 133.5265 -23.8065
v  -18.5955 133.5265 -22.6415
v  -26.4240 96.7552 3.8166
v  -37.2398 98.8706 9.7848
v  -36.6466 95.0183 12.2252
v  -25.8308 92.9030 6.2571
v  -28.7437 95.6740 -0.0040
v  -39.5596 97.7893 5.9641
v  -29.5842 91.1535 0.0751
v  -40.4000 93.2688 6.0433
v  -27.7839 89.4409 3.9447
v  -38.5997 91.5562 9.9129
v  -44.4380 102.2184 9.8171
v  -46.7396 102.4041 12.8975
v  -46.7061 102.1363 6.8518
v  -50.4095 102.2712 8.0997
v  -50.4302 102.4367 11.8361
v  -50.6190 115.5413 19.6008
v  -51.6937 115.6280 21.0392
v  -51.6781 115.5029 18.2163
v  -53.4073 115.5659 18.7989
v  -53.4169 115.6432 20.5436
v  -44.7281 124.1751 17.7982
v  0.5023 72.3748 -0.7955
v  15.6139 76.0593 2.7000
v  16.8282 70.3842 3.4323
v  1.7167 66.6997 -0.0632
v  -1.2173 74.5354 4.3613
v  13.8943 78.2200 7.8568
v  -1.0657 70.1956 8.2806
v  14.0458 73.8802 11.7761
v  0.7475 65.3529 5.5461
v  15.8591 69.0374 9.0416
v  29.0971 82.1734 5.0993
v  33.7263 80.8670 5.4532
v  28.0171 84.8880 8.9367
v  31.9787 85.2594 11.6623
v  35.5072 82.7742 9.5093
v  24.4999 100.7144 -16.9430
v  26.9243 99.1943 -16.6587
v  23.7848 101.7391 -14.3531
v  25.7671 100.8524 -12.4683
v  27.7074 99.2796 -13.8931
v  43.1982 107.2836 -29.5680
v  -6.3082 35.2729 -16.3985
v  -20.0728 38.8586 -26.6110
v  -21.3573 44.0538 -23.0556
v  -7.5927 40.4681 -12.8431
v  -9.4854 30.2970 -13.8633
v  -23.2500 33.8827 -24.0758
v  -12.7334 32.4169 -8.7412
v  -26.4981 36.0027 -18.9536
v  -11.5637 38.7030 -8.1106
v  -25.3283 42.2888 -18.3231
v  -37.0141 64.2744 -44.3272
v  -36.5311 64.9343 -42.1263
v  -39.3070 63.7850 -44.4512
v  -40.2411 64.1424 -42.3271
v  -38.5255 64.8526 -40.8902
v  -45.9510 75.0979 -37.4283
# 99 vertices

vn 0.6042 0.7373 -0.3023
vn -0.1334 0.4474 -0.8843
vn -0.9624 -0.2197 -0.1597
vn -0.4590 -0.0824 0.8846
vn 0.5666 0.5901 0.5751
vn 0.0000 -1.0000 -0.0000
vn 0.8317 -0.3676 -0.4161
vn -0.1122 -0.6584 -0.7442
vn -0.9865 -0.0096 -0.1637
vn -0.3249 0.7087 0.6262
vn 0.5571 0.6083 0.5654
vn 0.8760 0.2016 -0.4382
vn -0.1449 0.2360 -0.9609
vn -0.9798 0.1160 -0.1626
vn -0.4606 0.0020 0.8876
vn 0.7007 0.0569 0.7112
vn 0.8928 -0.0580 -0.4466
vn -0.1326 0.4579 -0.8791
vn -0.9142 0.3759 -0.1517
vn -0.4483 -0.2289 0.8641
vn 0.6223 -0.4626 0.6315
vn 0.5245 0.7397 -0.4215
vn -0.1417 -0.2386 -0.9607
vn -0.5677 -0.8232 0.0064
vn -0.3574 -0.3506 0.8657
vn 0.4856 0.7358 0.4720
vn 0.8073 -0.5892 -0.0321
vn -0.1140 -0.4471 -0.8872
vn -0.8370 0.3967 -0.3769
vn -0.5277 0.7186 0.4530
vn 0.6831 0.0495 0.7286
vn 0.6085 0.7328 -0.3044
vn -0.1042 0.7152 -0.6911
vn -0.9597 -0.2317 -0.1593
vn -0.3316 -0.6941 0.6390
vn 0.6940 -0.1495 0.7043
vn 0.4885 0.5194 0.7011
vn 0.0283 0.9572 -0.2881
vn -0.4710 0.0722 -0.8792
vn -0.3194 -0.9126 -0.2553
vn 0.2736 -0.6362 0.7214
vn 0.8630 -0.1688 -0.4762
vn 0.4441 0.6769 0.5870
vn 0.4090 0.8123 -0.4158
vn -0.2194 -0.0672 -0.9733
vn -0.6725 -0.7401 0.0068
vn -0.2560 -0.4303 0.8656
vn 0.7970 -0.0707 0.5998
vn 0.6056 0.6341 -0.4808
vn -0.2425 0.5745 -0.7818
vn -0.9747 -0.2234 0.0045
vn -0.2315 -0.5715 0.7873
vn 0.7301 -0.3795 0.5684
vn 0.6665 -0.5580 -0.4944
vn -0.3063 0.2006 -0.9306
vn -0.7059 0.7075 -0.0353
vn -0.2343 0.5058 0.8302
vn 0.2417 -0.0731 -0.9676
vn -0.1228 0.9001 -0.4181
vn -0.3175 0.6294 0.7092
vn -0.0735 -0.5111 0.8564
vn 0.2721 -0.9453 -0.1799
vn -0.9479 -0.2311 -0.2193
vn 0.1562 -0.0229 -0.9875
vn -0.3021 0.7955 -0.5253
vn -0.3922 0.6624 0.6383
vn 0.2582 -0.3987 0.8800
vn 0.5523 -0.8336 0.0020
vn -0.2575 -0.7734 -0.5793
vn -0.9420 -0.3278 -0.0724
vn -0.3854 0.7198 0.5774
vn 0.6798 0.6850 0.2622
vn 0.9396 -0.0489 -0.3389
vn -0.2905 -0.6023 -0.7436
vn -0.5452 0.7171 -0.4343
vn 0.0419 0.9203 0.3889
vn 0.6626 0.1533 0.7331
vn 0.3905 -0.9169 -0.0823
vn 0.5849 0.5516 -0.5947
vn 0.3709 -0.5986 -0.7100
vn -0.3557 -0.9215 0.1558
vn -0.5907 0.0290 0.8064
vn -0.0094 0.9395 0.3425
vn 0.7861 -0.2048 0.5832
vn 0.8784 0.3907 -0.2751
vn 0.1319 -0.5076 -0.8514
vn -0.7737 -0.5834 -0.2471
vn -0.7786 0.1404 0.6116
vn 0.3304 0.7566 0.5643
vn 0.6021 0.7188 -0.3476
vn -0.0601 0.5007 -0.8635
vn -0.8880 -0.3116 -0.3381
vn -0.3982 -0.5393 0.7420
vn 0.5219 0.0917 0.8481
vn 0.8738 -0.0035 -0.4863
vn -0.1406 -0.5459 -0.8260
vn -0.9464 -0.3137 -0.0771
vn -0.4382 0.4338 0.7873
vn 0.6206 0.5956 0.5100
# 99 vertex normals

vt 0.7500 0.0000 1.0000
vt 0.9500 0.0000 1.0000
vt 0.9500 1.0000 1.0000
vt 0.7500 1.0000 1.0000
vt 1.1500 0.0000 1.0000
vt 1.1500 1.0000 1.0000
vt 0.1500 0.0000 1.0000
vt 0.3500 0.0000 1.0000
vt 0.3500 1.0000 1.0000
vt 0.1500 1.0000 1.0000
vt 0.5500 0.0000 1.0000
vt 0.5500 1.0000 1.0000
vt 0.2061 0.0955 -0.2500
vt 0.0245 0.6545 -0.2500
vt 0.5000 1.0000 -0.2500
vt 0.7939 0.0955 -0.2500
vt 0.9755 0.6545 -0.2500
vt 0.9500 0.5000 1.0000
vt 0.7500 0.5000 1.0000
vt 1.1500 0.5000 1.0000
vt 0.3500 0.5000 1.0000
vt 0.1500 0.5000 1.0000
vt 0.5500 0.5000 1.0000
vt 0.6500 1.0000 1.0000
vt 0.4500 0.5000 1.0000
# 25 texture coords

g Baum01
usemtl 01___Default
s off
f 1/1/1 2/2/1 3/3/1 4/4/1 
f 2/2/2 5/5/2 6/6/2 3/3/2 
f 5/7/3 7/8/3 8/9/3 6/10/3 
f 7/8/4 9/11/4 10/12/4 8/9/4 
f 9/11/5 1/1/5 4/4/5 10/12/5 
f 5/13/6 2/14/6 1/15/6 7/16/6 
f 9/17/6 7/16/6 1/15/6 
f 4/4/7 3/3/7 11/3/7 12/4/7 
f 3/3/8 6/6/8 13/6/8 11/3/8 
f 6/10/9 8/9/9 14/9/9 13/10/9 
f 8/9/10 10/12/10 15/12/10 14/9/10 
f 10/12/11 4/4/11 12/4/11 15/12/11 
f 12/4/12 11/3/12 16/3/12 17/4/12 
f 11/3/13 13/6/13 18/6/13 16/3/13 
f 13/10/14 14/9/14 19/9/14 18/10/14 
f 14/9/15 15/12/15 20/12/15 19/9/15 
f 15/12/16 12/4/16 17/4/16 20/12/16 
f 17/4/17 16/3/17 21/3/17 22/4/17 
f 16/3/18 18/6/18 23/6/18 21/3/18 
f 18/10/19 19/9/19 24/9/19 23/10/19 
f 19/9/20 20/12/20 25/12/20 24/9/20 
f 20/12/21 17/4/21 22/4/21 25/12/21 
f 22/4/22 21/3/22 26/3/22 27/4/22 
f 21/3/23 23/6/23 28/6/23 26/3/23 
f 23/10/24 24/9/24 29/9/24 28/10/24 
f 24/9/25 25/12/25 30/12/25 29/9/25 
f 25/12/26 22/4/26 27/4/26 30/12/26 
f 26/3/27 31/3/27 32/4/27 27/4/27 
f 26/3/28 28/6/28 33/6/28 31/3/28 
f 28/10/29 29/9/29 34/9/29 33/10/29 
f 30/12/30 35/12/30 34/9/30 29/9/30 
f 27/4/31 32/4/31 35/12/31 30/12/31 
f 36/3/32 37/3/32 38/4/32 
f 39/6/33 37/3/33 36/3/33 
f 40/9/34 37/9/34 39/10/34 
f 41/12/35 37/9/35 40/9/35 
f 38/4/36 37/9/36 41/12/36 
f 42/2/37 43/18/37 44/19/37 45/1/37 
f 46/5/38 47/20/38 43/18/38 42/2/38 
f 48/8/39 49/21/39 47/22/39 46/7/39 
f 50/11/40 51/23/40 49/21/40 48/8/40 
f 45/1/41 44/19/41 51/23/41 50/11/41 
f 46/13/42 42/14/42 45/15/42 48/16/42 
f 50/17/42 48/16/42 45/15/42 
f 52/3/43 53/4/43 44/19/43 43/18/43 
f 54/6/44 52/3/44 43/18/44 47/20/44 
f 55/9/45 54/10/45 47/22/45 49/21/45 
f 56/12/46 55/9/46 49/21/46 51/23/46 
f 53/4/47 56/12/47 51/23/47 44/19/47 
f 53/4/48 52/3/48 57/3/48 58/4/48 
f 52/3/49 54/6/49 59/6/49 57/3/49 
f 54/10/50 55/9/50 60/9/50 59/10/50 
f 55/9/51 56/12/51 61/12/51 60/9/51 
f 56/12/52 53/4/52 58/4/52 61/12/52 
f 58/4/53 57/3/53 62/3/53 
f 57/3/54 59/6/54 62/3/54 
f 59/10/55 60/9/55 62/9/55 
f 60/9/56 61/12/56 62/9/56 
f 61/12/57 58/4/57 62/9/57 
f 63/2/58 64/18/58 65/19/58 66/1/58 
f 67/5/59 68/20/59 64/18/59 63/2/59 
f 69/8/60 70/21/60 68/22/60 67/7/60 
f 71/11/61 72/23/61 70/21/61 69/8/61 
f 66/1/62 65/19/62 72/23/62 71/11/62 
f 67/13/63 63/14/63 66/15/63 69/16/63 
f 71/17/63 69/16/63 66/15/63 
f 73/3/64 74/4/64 65/19/64 64/18/64 
f 75/6/65 73/3/65 64/18/65 68/20/65 
f 76/9/66 75/10/66 68/22/66 70/21/66 
f 77/12/67 76/9/67 70/21/67 72/23/67 
f 74/4/68 77/12/68 72/23/68 65/19/68 
f 74/4/69 73/3/69 78/3/69 79/4/69 
f 73/3/70 75/6/70 80/6/70 78/3/70 
f 75/10/71 76/9/71 81/9/71 80/10/71 
f 76/9/72 77/12/72 82/12/72 81/9/72 
f 77/12/73 74/4/73 79/4/73 82/12/73 
f 79/4/74 78/3/74 83/24/74 
f 78/3/75 80/6/75 83/24/75 
f 80/10/76 81/9/76 83/24/76 
f 81/9/77 82/12/77 83/24/77 
f 82/12/78 79/4/78 83/24/78 
f 84/2/79 85/18/79 86/19/79 87/1/79 
f 88/5/80 89/20/80 85/18/80 84/2/80 
f 90/8/81 91/21/81 89/22/81 88/7/81 
f 92/11/82 93/23/82 91/21/82 90/8/82 
f 87/1/83 86/19/83 93/23/83 92/11/83 
f 88/13/84 84/14/84 87/15/84 90/16/84 
f 92/17/84 90/16/84 87/15/84 
f 86/19/85 85/18/85 94/18/85 95/19/85 
f 85/18/86 89/20/86 96/20/86 94/18/86 
f 89/22/87 91/21/87 97/21/87 96/22/87 
f 91/21/88 93/23/88 98/23/88 97/21/88 
f 93/23/89 86/19/89 95/19/89 98/23/89 
f 95/19/90 94/18/90 99/18/90 
f 94/18/91 96/20/91 99/18/91 
f 96/22/92 97/21/92 99/22/92 
f 97/21/93 98/23/93 99/25/93 
f 98/23/94 95/19/94 99/25/94 
f 31/3/95 36/3/95 38/4/95 32/4/95 
f 39/6/96 36/3/96 31/3/96 33/6/96 
f 40/9/97 39/10/97 33/10/97 34/9/97 
f 35/12/98 41/12/98 40/9/98 34/9/98 
f 32/4/99 38/4/99 41/12/99 35/12/99 
# 79 polygons - 24 triangles

