# 3ds Max Wavefront OBJ Exporter v0.97b - (c)2007 guruware
# File Created: 01.04.2017 15:02:48

#
# object Box001
#

v  1.7921 0.0000 -2.5055
v  1.7921 0.0000 -3.5760
v  2.5152 0.0000 -3.5760
v  2.5152 0.0000 -2.5055
v  3.7230 0.0000 -3.5760
v  3.7230 0.0000 -2.5055
v  4.4471 0.0000 -3.5760
v  4.4471 0.0000 -2.5055
v  0.7560 25.7495 -2.5055
v  2.5152 28.8829 -2.5055
v  2.5152 28.8829 -3.5760
v  0.7560 25.7495 -3.5760
v  3.7230 26.9037 -2.5055
v  3.7230 26.9037 -3.5760
v  5.0747 25.7495 -2.5055
v  5.0747 25.7495 -3.5760
v  2.5152 8.1153 -2.5055
v  2.1355 8.0782 -2.5055
v  3.7230 8.1153 -2.5055
v  4.9302 8.0782 -2.5055
v  4.9302 8.0782 -3.5760
v  3.7230 8.1153 -3.5760
v  2.5152 8.1153 -3.5760
v  2.1355 8.0782 -3.5760
v  1.3843 14.3217 -2.5055
v  2.5152 20.1028 -2.5055
v  1.7556 18.7588 -2.5055
v  0.1145 14.2562 -2.5055
v  3.7230 20.1028 -2.5055
v  2.5922 14.3217 -2.5055
v  4.8996 18.7588 -2.5055
v  3.1501 14.2562 -2.5055
v  4.8996 18.7588 -3.5760
v  3.1501 14.2562 -3.5760
v  2.5922 14.3217 -3.5760
v  3.7230 20.1028 -3.5760
v  2.5152 20.1028 -3.5760
v  1.3843 14.3217 -3.5760
v  1.7556 18.7588 -3.5760
v  0.1145 14.2562 -3.5760
v  2.5152 24.2822 -2.5055
v  0.5381 21.4684 -2.5055
v  3.7230 24.2822 -2.5055
v  4.4055 21.4684 -2.5055
v  4.4055 21.4684 -3.5760
v  3.7230 24.2822 -3.5760
v  2.5152 24.2822 -3.5760
v  0.5381 21.4684 -3.5760
# 48 vertices

vn 0.0000 -1.0000 -0.0000
vn -0.8720 0.4895 -0.0000
vn -0.0182 0.9998 -0.0000
vn 0.7610 0.6488 -0.0000
vn 0.6494 0.7605 -0.0000
vn 0.0000 0.0000 1.0000
vn 0.9982 -0.0597 -0.0000
vn 0.9939 0.1102 -0.0000
vn 0.0000 0.0000 -1.0000
vn -0.9991 0.0425 -0.0000
vn -0.9907 -0.1364 0.0000
vn 0.9955 -0.0950 -0.0000
vn 0.9990 -0.0450 -0.0000
vn -0.9993 -0.0364 0.0000
vn -0.9999 0.0167 0.0000
vn -0.9999 0.0167 -0.0000
vn 0.9999 0.0127 -0.0000
vn -0.9828 -0.1847 0.0000
vn 0.9880 -0.1544 -0.0000
vn -0.9987 0.0508 0.0000
vn -0.9987 0.0508 -0.0000
# 21 vertex normals

vt 1.0000 0.0000 0.0000
vt 1.0000 1.0000 0.0000
vt 0.6667 1.0000 0.0000
vt 0.6667 0.0000 0.0000
vt 0.3333 1.0000 0.0000
vt 0.3333 0.0000 0.0000
vt -0.0000 1.0000 0.0000
vt -0.0000 0.0000 0.0000
vt 0.0000 0.0000 0.0000
vt 0.0000 1.0000 0.0000
vt 0.3333 0.0098 0.0000
vt 0.0000 0.0098 0.0000
vt 0.6667 0.0098 0.0000
vt 1.0000 0.0098 0.0000
vt 0.3333 0.0173 0.0000
vt 0.3333 0.3557 0.0000
vt 0.0000 0.3557 0.0000
vt 0.0000 0.0173 0.0000
vt 0.6667 0.3557 0.0000
vt 0.6667 0.0173 0.0000
vt 1.0000 0.3557 0.0000
vt 1.0000 0.0173 0.0000
vt 0.3333 0.7447 0.0000
vt 0.0000 0.7447 0.0000
vt 0.6667 0.7447 0.0000
vt 1.0000 0.7447 0.0000
# 26 texture coords

g Box001
s 2
f 1/1/1 2/2/1 3/3/1 4/4/1 
f 4/4/1 3/3/1 5/5/1 6/6/1 
f 6/6/1 5/5/1 7/7/1 8/8/1 
s 4
f 9/9/2 10/6/3 11/5/3 12/10/2 
f 10/6/3 13/4/4 14/3/4 11/5/3 
f 13/4/4 15/1/5 16/2/5 14/3/4 
s 8
f 4/6/6 17/11/6 18/12/6 1/9/6 
f 6/4/6 19/13/6 17/11/6 4/6/6 
f 6/4/6 8/1/6 20/14/6 19/13/6 
s 16
f 7/1/7 21/14/8 20/12/8 8/9/7 
s 32
f 5/6/9 22/11/9 21/12/9 7/9/9 
f 3/4/9 23/13/9 22/11/9 5/6/9 
f 2/1/9 24/14/9 23/13/9 3/4/9 
s 64
f 1/1/10 18/14/11 24/12/11 2/9/10 
s 8
f 25/15/6 26/16/6 27/17/6 28/18/6 
f 29/19/6 26/16/6 25/15/6 30/20/6 
f 31/21/6 29/19/6 30/20/6 32/22/6 
s 16
f 33/21/12 31/17/12 32/18/13 34/22/13 
s 32
f 35/15/9 36/16/9 33/17/9 34/18/9 
f 37/19/9 36/16/9 35/15/9 38/20/9 
f 39/21/9 37/19/9 38/20/9 40/22/9 
s 64
f 27/21/14 39/17/14 40/18/15 28/22/16 
s 8
f 26/16/6 41/23/6 42/24/6 27/17/6 
f 43/25/6 41/23/6 26/16/6 29/19/6 
f 44/26/6 43/25/6 29/19/6 31/21/6 
s 16
f 45/26/17 44/24/17 31/17/12 33/21/12 
s 32
f 36/16/9 46/23/9 45/24/9 33/17/9 
f 47/25/9 46/23/9 36/16/9 37/19/9 
f 48/26/9 47/25/9 37/19/9 39/21/9 
s 64
f 42/26/18 48/24/18 39/17/14 27/21/14 
s 8
f 17/11/6 25/15/6 28/18/6 18/12/6 
f 30/20/6 25/15/6 17/11/6 19/13/6 
f 32/22/6 30/20/6 19/13/6 20/14/6 
s 16
f 34/22/13 32/18/13 20/12/8 21/14/8 
s 32
f 22/11/9 35/15/9 34/18/9 21/12/9 
f 38/20/9 35/15/9 22/11/9 23/13/9 
f 40/22/9 38/20/9 23/13/9 24/14/9 
s 64
f 28/22/16 40/18/15 24/12/11 18/14/11 
s 8
f 41/23/6 10/5/6 9/10/6 42/24/6 
f 13/3/6 10/5/6 41/23/6 43/25/6 
f 15/2/6 13/3/6 43/25/6 44/26/6 
s 16
f 16/2/19 15/10/19 44/24/17 45/26/17 
s 32
f 46/23/9 14/5/9 16/10/9 45/24/9 
f 11/3/9 14/5/9 46/23/9 47/25/9 
f 12/2/9 11/3/9 47/25/9 48/26/9 
s 64
f 9/2/20 12/10/21 48/24/18 42/26/18 
# 46 polygons

#
# object Box005
#

v  0.6812 16.4190 -3.4458
v  0.6812 16.4190 -4.5725
v  9.2314 15.7026 -4.5725
v  9.2314 15.7026 -3.4458
v  17.7816 16.4190 -4.5725
v  17.7816 16.4190 -3.4458
v  26.3318 16.4190 -4.5725
v  26.3318 16.4190 -3.4458
v  0.6812 19.5554 -3.4458
v  9.2314 18.8612 -3.4458
v  9.2314 18.8612 -4.5725
v  0.6812 19.5554 -4.5725
v  17.7816 18.8612 -3.4458
v  17.7816 18.8612 -4.5725
v  26.3318 19.5554 -3.4458
v  26.3318 19.5554 -4.5725
# 16 vertices

vn -0.0835 -0.9965 -0.0000
vn 0.0000 -1.0000 -0.0000
vn -0.0000 -1.0000 -0.0000
vn 0.0418 -0.9991 -0.0000
vn 0.0809 0.9967 -0.0000
vn 0.0405 0.9992 -0.0000
vn -0.0405 0.9992 -0.0000
vn -0.0809 0.9967 -0.0000
vn 0.0000 0.0000 1.0000
vn 1.0000 0.0000 -0.0000
vn 0.0000 0.0000 -1.0000
vn -1.0000 0.0000 -0.0000
# 12 vertex normals

vt 1.0000 0.0000 0.0000
vt 1.0000 1.0000 0.0000
vt 0.6667 1.0000 0.0000
vt 0.6667 0.0000 0.0000
vt 0.3333 1.0000 0.0000
vt 0.3333 0.0000 0.0000
vt -0.0000 1.0000 0.0000
vt -0.0000 0.0000 0.0000
vt 0.0000 0.0000 0.0000
vt 0.0000 1.0000 0.0000
# 10 texture coords

g Box005
s 2
f 49/27/22 50/28/22 51/29/23 52/30/24 
f 52/30/24 51/29/23 53/31/25 54/32/25 
f 54/32/25 53/31/25 55/33/23 56/34/23 
s 4
f 57/35/26 58/32/27 59/31/27 60/36/26 
f 58/32/27 61/30/28 62/29/28 59/31/27 
f 61/30/28 63/27/29 64/28/29 62/29/28 
s 8
f 49/35/30 52/32/30 58/31/30 57/36/30 
f 52/32/30 54/30/30 61/29/30 58/31/30 
f 54/30/30 56/27/30 63/28/30 61/29/30 
s 16
f 56/35/31 55/27/31 64/28/31 63/36/31 
s 32
f 55/35/32 53/32/32 62/31/32 64/36/32 
f 53/32/32 51/30/32 59/29/32 62/31/32 
f 51/30/32 50/27/32 60/28/32 59/29/32 
s 64
f 50/35/33 49/27/33 57/28/33 60/36/33 
# 14 polygons

#
# object Box006
#

v  11.9388 -0.2304 -2.5055
v  11.9388 -0.2304 -3.5760
v  12.6509 -0.1049 -3.5760
v  12.6509 -0.1049 -2.5055
v  13.8404 0.1049 -3.5760
v  13.8404 0.1049 -2.5055
v  14.5535 0.2306 -3.5760
v  14.5535 0.2306 -2.5055
v  6.1724 26.5063 -2.5055
v  6.3788 32.3981 -2.5055
v  6.3788 32.3981 -3.5760
v  6.1724 26.5063 -3.5760
v  7.5683 32.6079 -2.5055
v  7.5683 32.6079 -3.5760
v  10.4254 27.2562 -2.5055
v  10.4254 27.2562 -3.5760
v  9.8842 7.2541 -2.5055
v  9.5167 7.1517 -2.5055
v  11.0737 7.4638 -2.5055
v  12.2690 7.6370 -2.5055
v  12.2690 7.6370 -3.5760
v  11.0737 7.4638 -3.5760
v  9.8842 7.2541 -3.5760
v  9.5167 7.1517 -3.5760
v  12.1203 14.9115 -2.5055
v  9.1601 19.6925 -2.5055
v  8.6455 18.2370 -2.5055
v  10.8812 14.6265 -2.5055
v  10.3496 19.9022 -2.5055
v  13.3098 15.1212 -2.5055
v  11.7417 18.7830 -2.5055
v  13.8707 15.1537 -2.5055
v  11.7417 18.7830 -3.5760
v  13.8707 15.1537 -3.5760
v  13.3098 15.1212 -3.5760
v  10.3496 19.9022 -3.5760
v  9.1601 19.6925 -3.5760
v  12.1203 14.9115 -3.5760
v  8.6455 18.2370 -3.5760
v  10.8812 14.6265 -3.5760
v  6.7464 25.6503 -2.5055
v  5.2880 22.5359 -2.5055
v  7.9359 25.8600 -2.5055
v  9.0966 23.2074 -2.5055
v  9.0966 23.2074 -3.5760
v  7.9359 25.8600 -3.5760
v  6.7464 25.6503 -3.5760
v  5.2880 22.5359 -3.5760
# 48 vertices

vn 0.1736 -0.9848 -0.0000
vn -0.9994 0.0350 -0.0000
vn -0.7547 0.6561 -0.0000
vn 0.4376 0.8992 -0.0000
vn 0.8822 0.4710 -0.0000
vn 0.0000 0.0000 1.0000
vn 0.9556 0.2947 -0.0000
vn 0.9990 0.0446 -0.0000
vn 0.0000 0.0000 -1.0000
vn -0.9502 -0.3117 0.0000
vn -0.9977 -0.0682 -0.0000
vn -0.9502 -0.3117 -0.0000
vn 0.8604 0.5096 -0.0000
vn 0.9872 0.1596 -0.0000
vn -0.8204 -0.5718 0.0000
vn -0.9826 -0.1859 -0.0000
vn -0.9826 -0.1859 0.0000
vn 0.9939 0.1106 -0.0000
vn -0.9755 -0.2201 0.0000
vn 0.9501 -0.3118 -0.0000
vn -0.9761 0.2174 0.0000
vn -0.9761 0.2174 -0.0000
# 22 vertex normals

vt 1.0000 0.0000 0.0000
vt 1.0000 1.0000 0.0000
vt 0.6667 1.0000 0.0000
vt 0.6667 0.0000 0.0000
vt 0.3333 1.0000 0.0000
vt 0.3333 0.0000 0.0000
vt -0.0000 1.0000 0.0000
vt -0.0000 0.0000 0.0000
vt 0.0000 0.0000 0.0000
vt 0.0000 1.0000 0.0000
vt 0.3333 0.0098 0.0000
vt 0.0000 0.0098 0.0000
vt 0.6667 0.0098 0.0000
vt 1.0000 0.0098 0.0000
vt 0.3333 0.0173 0.0000
vt 0.3333 0.3557 0.0000
vt 0.0000 0.3557 0.0000
vt 0.0000 0.0173 0.0000
vt 0.6667 0.3557 0.0000
vt 0.6667 0.0173 0.0000
vt 1.0000 0.3557 0.0000
vt 1.0000 0.0173 0.0000
vt 0.3333 0.7447 0.0000
vt 0.0000 0.7447 0.0000
vt 0.6667 0.7447 0.0000
vt 1.0000 0.7447 0.0000
# 26 texture coords

g Box006
s 2
f 65/37/34 66/38/34 67/39/34 68/40/34 
f 68/40/34 67/39/34 69/41/34 70/42/34 
f 70/42/34 69/41/34 71/43/34 72/44/34 
s 4
f 73/45/35 74/42/36 75/41/36 76/46/35 
f 74/42/36 77/40/37 78/39/37 75/41/36 
f 77/40/37 79/37/38 80/38/38 78/39/37 
s 8
f 68/42/39 81/47/39 82/48/39 65/45/39 
f 70/40/39 83/49/39 81/47/39 68/42/39 
f 70/40/39 72/37/39 84/50/39 83/49/39 
s 16
f 71/37/40 85/50/41 84/48/41 72/45/40 
s 32
f 69/42/42 86/47/42 85/48/42 71/45/42 
f 67/40/42 87/49/42 86/47/42 69/42/42 
f 66/37/42 88/50/42 87/49/42 67/40/42 
s 64
f 65/37/43 82/50/44 88/48/44 66/45/45 
s 8
f 89/51/39 90/52/39 91/53/39 92/54/39 
f 93/55/39 90/52/39 89/51/39 94/56/39 
f 95/57/39 93/55/39 94/56/39 96/58/39 
s 16
f 97/57/46 95/53/46 96/54/47 98/58/47 
s 32
f 99/51/42 100/52/42 97/53/42 98/54/42 
f 101/55/42 100/52/42 99/51/42 102/56/42 
f 103/57/42 101/55/42 102/56/42 104/58/42 
s 64
f 91/57/48 103/53/48 104/54/49 92/58/50 
s 8
f 90/52/39 105/59/39 106/60/39 91/53/39 
f 107/61/39 105/59/39 90/52/39 93/55/39 
f 108/62/39 107/61/39 93/55/39 95/57/39 
s 16
f 109/62/51 108/60/51 95/53/46 97/57/46 
s 32
f 100/52/42 110/59/42 109/60/42 97/53/42 
f 111/61/42 110/59/42 100/52/42 101/55/42 
f 112/62/42 111/61/42 101/55/42 103/57/42 
s 64
f 106/62/52 112/60/52 103/53/48 91/57/48 
s 8
f 81/47/39 89/51/39 92/54/39 82/48/39 
f 94/56/39 89/51/39 81/47/39 83/49/39 
f 96/58/39 94/56/39 83/49/39 84/50/39 
s 16
f 98/58/47 96/54/47 84/48/41 85/50/41 
s 32
f 86/47/42 99/51/42 98/54/42 85/48/42 
f 102/56/42 99/51/42 86/47/42 87/49/42 
f 104/58/42 102/56/42 87/49/42 88/50/42 
s 64
f 92/58/50 104/54/49 88/48/44 82/50/44 
s 8
f 105/59/39 74/41/39 73/46/39 106/60/39 
f 77/39/39 74/41/39 105/59/39 107/61/39 
f 79/38/39 77/39/39 107/61/39 108/62/39 
s 16
f 80/38/53 79/46/53 108/60/51 109/62/51 
s 32
f 110/59/42 78/41/42 80/46/42 109/60/42 
f 75/39/42 78/41/42 110/59/42 111/61/42 
f 76/38/42 75/39/42 111/61/42 112/62/42 
s 64
f 73/38/54 76/46/55 112/60/52 106/62/52 
# 46 polygons

#
# object Box007
#

v  15.2320 0.1157 -2.5055
v  15.2320 0.1157 -3.5760
v  15.9523 0.0526 -3.5760
v  15.9523 0.0526 -2.5055
v  17.1556 -0.0526 -3.5760
v  17.1556 -0.0526 -2.5055
v  17.8770 -0.1157 -3.5760
v  17.8770 -0.1157 -2.5055
v  17.1551 26.7624 -2.5055
v  18.6638 29.3683 -2.5055
v  18.6638 29.3683 -3.5760
v  17.1551 26.7624 -3.5760
v  19.8670 29.2630 -2.5055
v  19.8670 29.2630 -3.5760
v  20.2126 27.0574 -2.5055
v  20.2126 27.0574 -3.5760
v  15.1553 8.1370 -2.5055
v  14.7739 8.1332 -2.5055
v  16.3586 8.0318 -2.5055
v  17.5580 7.8896 -2.5055
v  17.5580 7.8896 -3.5760
v  16.3586 8.0318 -3.5760
v  15.1553 8.1370 -3.5760
v  14.7739 8.1332 -3.5760
v  17.1982 14.3198 -2.5055
v  18.4267 20.0789 -2.5055
v  17.5529 18.8062 -2.5055
v  15.9275 14.3653 -2.5055
v  19.6299 19.9736 -2.5055
v  18.4015 14.2145 -2.5055
v  20.6849 18.5322 -2.5055
v  18.9516 14.1007 -2.5055
v  20.6849 18.5322 -3.5760
v  18.9516 14.1007 -3.5760
v  18.4015 14.2145 -3.5760
v  19.6299 19.9736 -3.5760
v  18.4267 20.0789 -3.5760
v  17.1982 14.3198 -3.5760
v  17.5529 18.8062 -3.5760
v  15.9275 14.3653 -3.5760
v  18.2837 26.6997 -2.5055
v  16.0689 24.0689 -2.5055
v  19.4869 26.5945 -2.5055
v  19.9216 23.7318 -2.5055
v  19.9216 23.7318 -3.5760
v  19.4869 26.5945 -3.5760
v  18.2837 26.6997 -3.5760
v  16.0689 24.0689 -3.5760
# 48 vertices

vn -0.0872 -0.9962 -0.0000
vn -0.8654 0.5011 -0.0000
vn -0.4612 0.8873 -0.0000
vn 0.6826 0.7308 -0.0000
vn 0.9879 0.1548 -0.0000
vn 0.0000 0.0000 1.0000
vn 0.9992 0.0398 -0.0000
vn 0.9959 -0.0903 -0.0000
vn 0.0000 0.0000 -1.0000
vn -0.9984 -0.0570 0.0000
vn -0.9980 0.0629 0.0000
vn -0.9984 -0.0570 -0.0000
vn 0.9936 -0.1133 -0.0000
vn 0.9563 -0.2924 -0.0000
vn -0.9993 0.0380 0.0000
vn -0.9646 0.2638 -0.0000
vn 0.9996 0.0292 -0.0000
vn -0.9985 0.0542 0.0000
vn 0.9962 -0.0872 -0.0000
vn -0.9274 0.3740 0.0000
vn -0.9274 0.3740 -0.0000
# 21 vertex normals

vt 1.0000 0.0000 0.0000
vt 1.0000 1.0000 0.0000
vt 0.6667 1.0000 0.0000
vt 0.6667 0.0000 0.0000
vt 0.3333 1.0000 0.0000
vt 0.3333 0.0000 0.0000
vt -0.0000 1.0000 0.0000
vt -0.0000 0.0000 0.0000
vt 0.0000 0.0000 0.0000
vt 0.0000 1.0000 0.0000
vt 0.3333 0.0098 0.0000
vt 0.0000 0.0098 0.0000
vt 0.6667 0.0098 0.0000
vt 1.0000 0.0098 0.0000
vt 0.3333 0.0173 0.0000
vt 0.3333 0.3557 0.0000
vt 0.0000 0.3557 0.0000
vt 0.0000 0.0173 0.0000
vt 0.6667 0.3557 0.0000
vt 0.6667 0.0173 0.0000
vt 1.0000 0.3557 0.0000
vt 1.0000 0.0173 0.0000
vt 0.3333 0.7447 0.0000
vt 0.0000 0.7447 0.0000
vt 0.6667 0.7447 0.0000
vt 1.0000 0.7447 0.0000
# 26 texture coords

g Box007
s 2
f 113/63/56 114/64/56 115/65/56 116/66/56 
f 116/66/56 115/65/56 117/67/56 118/68/56 
f 118/68/56 117/67/56 119/69/56 120/70/56 
s 4
f 121/71/57 122/68/58 123/67/58 124/72/57 
f 122/68/58 125/66/59 126/65/59 123/67/58 
f 125/66/59 127/63/60 128/64/60 126/65/59 
s 8
f 116/68/61 129/73/61 130/74/61 113/71/61 
f 118/66/61 131/75/61 129/73/61 116/68/61 
f 118/66/61 120/63/61 132/76/61 131/75/61 
s 16
f 119/63/62 133/76/63 132/74/63 120/71/62 
s 32
f 117/68/64 134/73/64 133/74/64 119/71/64 
f 115/66/64 135/75/64 134/73/64 117/68/64 
f 114/63/64 136/76/64 135/75/64 115/66/64 
s 64
f 113/63/65 130/76/66 136/74/66 114/71/67 
s 8
f 137/77/61 138/78/61 139/79/61 140/80/61 
f 141/81/61 138/78/61 137/77/61 142/82/61 
f 143/83/61 141/81/61 142/82/61 144/84/61 
s 16
f 145/83/68 143/79/68 144/80/69 146/84/69 
s 32
f 147/77/64 148/78/64 145/79/64 146/80/64 
f 149/81/64 148/78/64 147/77/64 150/82/64 
f 151/83/64 149/81/64 150/82/64 152/84/64 
s 64
f 139/83/70 151/79/70 152/80/71 140/84/71 
s 8
f 138/78/61 153/85/61 154/86/61 139/79/61 
f 155/87/61 153/85/61 138/78/61 141/81/61 
f 156/88/61 155/87/61 141/81/61 143/83/61 
s 16
f 157/88/72 156/86/72 143/79/68 145/83/68 
s 32
f 148/78/64 158/85/64 157/86/64 145/79/64 
f 159/87/64 158/85/64 148/78/64 149/81/64 
f 160/88/64 159/87/64 149/81/64 151/83/64 
s 64
f 154/88/73 160/86/73 151/79/70 139/83/70 
s 8
f 129/73/61 137/77/61 140/80/61 130/74/61 
f 142/82/61 137/77/61 129/73/61 131/75/61 
f 144/84/61 142/82/61 131/75/61 132/76/61 
s 16
f 146/84/69 144/80/69 132/74/63 133/76/63 
s 32
f 134/73/64 147/77/64 146/80/64 133/74/64 
f 150/82/64 147/77/64 134/73/64 135/75/64 
f 152/84/64 150/82/64 135/75/64 136/76/64 
s 64
f 140/84/71 152/80/71 136/74/66 130/76/66 
s 8
f 153/85/61 122/67/61 121/72/61 154/86/61 
f 125/65/61 122/67/61 153/85/61 155/87/61 
f 127/64/61 125/65/61 155/87/61 156/88/61 
s 16
f 128/64/74 127/72/74 156/86/72 157/88/72 
s 32
f 158/85/64 126/67/64 128/72/64 157/86/64 
f 123/65/64 126/67/64 158/85/64 159/87/64 
f 124/64/64 123/65/64 159/87/64 160/88/64 
s 64
f 121/64/75 124/72/76 160/86/73 154/88/73 
# 46 polygons

#
# object Box008
#

v  22.6180 -0.3580 -2.5055
v  22.6180 -0.3580 -3.5760
v  23.3411 -0.3580 -3.5760
v  23.3411 -0.3580 -2.5055
v  24.5490 -0.3580 -3.5760
v  24.5490 -0.3580 -2.5055
v  25.2731 -0.3580 -3.5760
v  25.2731 -0.3580 -2.5055
v  21.5820 26.9739 -2.5055
v  23.3411 34.1989 -2.5055
v  23.3411 34.1989 -3.5760
v  21.5820 26.9739 -3.5760
v  24.5490 34.1989 -2.5055
v  24.5490 34.1989 -3.5760
v  25.9007 26.9739 -2.5055
v  25.9007 26.9739 -3.5760
v  21.7135 7.7573 -2.5055
v  21.3338 7.7202 -2.5055
v  22.9213 7.7573 -2.5055
v  24.1286 7.7202 -2.5055
v  24.1286 7.7202 -3.5760
v  22.9213 7.7573 -3.5760
v  21.7135 7.7573 -3.5760
v  21.3338 7.7202 -3.5760
v  25.0069 13.9637 -2.5055
v  21.7658 19.7448 -2.5055
v  21.0063 18.4008 -2.5055
v  23.7371 13.8983 -2.5055
v  22.9736 19.7448 -2.5055
v  26.2148 13.9637 -2.5055
v  24.1502 18.4008 -2.5055
v  26.7727 13.8983 -2.5055
v  24.1502 18.4008 -3.5760
v  26.7727 13.8983 -3.5760
v  26.2148 13.9637 -3.5760
v  22.9736 19.7448 -3.5760
v  21.7658 19.7448 -3.5760
v  25.0069 13.9637 -3.5760
v  21.0063 18.4008 -3.5760
v  23.7371 13.8983 -3.5760
v  23.3411 26.3909 -2.5055
v  21.3640 23.5771 -2.5055
v  24.5490 26.3909 -2.5055
v  25.2314 23.5771 -2.5055
v  25.2314 23.5771 -3.5760
v  24.5490 26.3909 -3.5760
v  23.3411 26.3909 -3.5760
v  21.3640 23.5771 -3.5760
# 48 vertices

vn -0.0000 -1.0000 -0.0000
vn -0.9716 0.2366 -0.0000
vn -0.6178 0.7863 -0.0000
vn 0.6388 0.7694 -0.0000
vn 0.9829 0.1839 -0.0000
vn 0.0000 0.0000 1.0000
vn 0.9901 0.1403 -0.0000
vn 0.9913 -0.1314 -0.0000
vn 0.0000 0.0000 -1.0000
vn -0.9876 -0.1570 0.0000
vn -0.9943 0.1065 -0.0000
vn -0.9876 -0.1570 -0.0000
vn 0.9871 0.1601 -0.0000
vn 0.9981 0.0615 -0.0000
vn -0.9718 -0.2359 0.0000
vn -0.9962 -0.0870 0.0000
vn 0.9800 -0.1989 -0.0000
vn -0.9978 0.0665 0.0000
vn 0.9811 -0.1933 -0.0000
vn -0.9979 0.0640 0.0000
vn -0.9979 0.0640 -0.0000
# 21 vertex normals

vt 1.0000 0.0000 0.0000
vt 1.0000 1.0000 0.0000
vt 0.6667 1.0000 0.0000
vt 0.6667 0.0000 0.0000
vt 0.3333 1.0000 0.0000
vt 0.3333 0.0000 0.0000
vt -0.0000 1.0000 0.0000
vt -0.0000 0.0000 0.0000
vt 0.0000 0.0000 0.0000
vt 0.0000 1.0000 0.0000
vt 0.3333 0.0098 0.0000
vt 0.0000 0.0098 0.0000
vt 0.6667 0.0098 0.0000
vt 1.0000 0.0098 0.0000
vt 0.3333 0.0173 0.0000
vt 0.3333 0.3557 0.0000
vt 0.0000 0.3557 0.0000
vt 0.0000 0.0173 0.0000
vt 0.6667 0.3557 0.0000
vt 0.6667 0.0173 0.0000
vt 1.0000 0.3557 0.0000
vt 1.0000 0.0173 0.0000
vt 0.3333 0.7447 0.0000
vt 0.0000 0.7447 0.0000
vt 0.6667 0.7447 0.0000
vt 1.0000 0.7447 0.0000
# 26 texture coords

g Box008
s 2
f 161/89/77 162/90/77 163/91/77 164/92/77 
f 164/92/77 163/91/77 165/93/77 166/94/77 
f 166/94/77 165/93/77 167/95/77 168/96/77 
s 4
f 169/97/78 170/94/79 171/93/79 172/98/78 
f 170/94/79 173/92/80 174/91/80 171/93/79 
f 173/92/80 175/89/81 176/90/81 174/91/80 
s 8
f 164/94/82 177/99/82 178/100/82 161/97/82 
f 166/92/82 179/101/82 177/99/82 164/94/82 
f 166/92/82 168/89/82 180/102/82 179/101/82 
s 16
f 167/89/83 181/102/84 180/100/84 168/97/83 
s 32
f 165/94/85 182/99/85 181/100/85 167/97/85 
f 163/92/85 183/101/85 182/99/85 165/94/85 
f 162/89/85 184/102/85 183/101/85 163/92/85 
s 64
f 161/89/86 178/102/87 184/100/87 162/97/88 
s 8
f 185/103/82 186/104/82 187/105/82 188/106/82 
f 189/107/82 186/104/82 185/103/82 190/108/82 
f 191/109/82 189/107/82 190/108/82 192/110/82 
s 16
f 193/109/89 191/105/89 192/106/90 194/110/90 
s 32
f 195/103/85 196/104/85 193/105/85 194/106/85 
f 197/107/85 196/104/85 195/103/85 198/108/85 
f 199/109/85 197/107/85 198/108/85 200/110/85 
s 64
f 187/109/91 199/105/91 200/106/92 188/110/92 
s 8
f 186/104/82 201/111/82 202/112/82 187/105/82 
f 203/113/82 201/111/82 186/104/82 189/107/82 
f 204/114/82 203/113/82 189/107/82 191/109/82 
s 16
f 205/114/93 204/112/93 191/105/89 193/109/89 
s 32
f 196/104/85 206/111/85 205/112/85 193/105/85 
f 207/113/85 206/111/85 196/104/85 197/107/85 
f 208/114/85 207/113/85 197/107/85 199/109/85 
s 64
f 202/114/94 208/112/94 199/105/91 187/109/91 
s 8
f 177/99/82 185/103/82 188/106/82 178/100/82 
f 190/108/82 185/103/82 177/99/82 179/101/82 
f 192/110/82 190/108/82 179/101/82 180/102/82 
s 16
f 194/110/90 192/106/90 180/100/84 181/102/84 
s 32
f 182/99/85 195/103/85 194/106/85 181/100/85 
f 198/108/85 195/103/85 182/99/85 183/101/85 
f 200/110/85 198/108/85 183/101/85 184/102/85 
s 64
f 188/110/92 200/106/92 184/100/87 178/102/87 
s 8
f 201/111/82 170/93/82 169/98/82 202/112/82 
f 173/91/82 170/93/82 201/111/82 203/113/82 
f 175/90/82 173/91/82 203/113/82 204/114/82 
s 16
f 176/90/95 175/98/95 204/112/93 205/114/93 
s 32
f 206/111/85 174/93/85 176/98/85 205/112/85 
f 171/91/85 174/93/85 206/111/85 207/113/85 
f 172/90/85 171/91/85 207/113/85 208/114/85 
s 64
f 169/90/96 172/98/97 208/112/94 202/114/94 
# 46 polygons

