# Exported from Wings 3D 1.5.3
mtllib zelt_01.mtl
o Cube24
#42 vertices, 34 faces
v -28.15974885 -0.17864768 -4.39289103
v -28.15974885 -0.17864768 3.79770897
v -29.30514345 9.51749459 -0.47708288
v -29.31406554 9.52537408 -0.10873359
v -12.09974885 -0.17864768 -4.39289103
v -12.09974885 -0.17864768 3.79770897
v -10.67460992 9.43391998 -0.47744766
v -10.66346343 9.44011356 -0.10910574
v -25.54661614 -0.17864768 -4.91033765
v -22.94341789 -0.17864768 -5.50869468
v -20.29431945 -0.17864768 -5.73322160
v -17.59008456 -0.17864768 -5.50869468
v -14.83994947 -0.17864768 -4.91033765
v -25.48377098 -0.18539626 4.19468774
v -22.80790083 -0.19320009 4.65374000
v -20.13153304 -0.19612838 4.82599433
v -17.45456749 -0.19320009 4.65374000
v -14.77710432 -0.18539626 4.19468774
v -26.07501344 8.69459642 -0.48067350
v -22.77016566 7.57125478 -0.48557506
v -20.12974882 7.44085473 -0.48614404
v -17.44811634 7.46705205 -0.48602973
v -13.93402504 8.75024595 -0.48043075
v -26.08307537 8.70046402 -0.11233299
v -22.76969078 7.55980250 -0.11731013
v -20.12974885 7.43427558 -0.11785784
v -17.44803483 7.45558850 -0.11776485
v -13.92378170 8.75547881 -0.11209301
v -14.62731921 4.28579914 -2.69538420
v -17.62788365 3.64420219 -2.99736220
v -20.20771411 3.63110353 -3.10968282
v -22.74139193 3.69630355 -2.99713487
v -25.57134598 4.25797437 -2.69550557
v -14.59230982 4.28504128 2.04129736
v -17.56293193 3.63119421 2.26798758
v -20.12973944 3.61907360 2.35406824
v -22.67625179 3.68330121 2.26821494
v -25.54510482 4.25753388 2.04117737
v -11.74816410 4.63073294 1.84430161
v -11.75350326 4.62763615 -2.43516935
v -28.37454250 4.67336320 1.84448769
v -28.37026882 4.66942346 -2.43498696
vn -0.74687812 0.24604399 -0.61776649
vn -0.73619903 0.24688584 0.63012568
vn -0.41543889 0.71971126 -0.55626094
vn -0.41517036 0.72696415 0.54695219
vn 0.75030472 0.22591314 -0.62129387
vn 0.74084802 0.22688250 0.63219344
vn 0.44410439 0.70482984 -0.55316019
vn 0.44345242 0.71079802 0.54600012
vn -9.6091274e-2 0.45028425 -0.88769959
vn -6.9646722e-2 0.52542165 -0.84798669
vn 2.2451473e-3 0.55738967 -0.83024799
vn 6.6139846e-2 0.52528906 -0.84834953
vn 9.1191528e-2 0.44843790 -0.88914991
vn -6.2984023e-2 0.44042840 0.89557570
vn -4.6557091e-2 0.50658155 0.86093413
vn 2.5563058e-3 0.53567713 0.84441902
vn 4.5155734e-2 0.50809910 0.86011410
vn 6.1568972e-2 0.44004100 0.89586449
vn 0.20789867 0.82862013 -0.51977574
vn 0.13541455 0.86677941 -0.47995454
vn 1.5959545e-2 0.88776023 -0.46002942
vn -0.12961192 0.86847888 -0.47848218
vn -0.20181084 0.83140159 -0.51772946
vn 0.21407601 0.82529857 0.52254544
vn 0.13828464 0.85257963 0.50396958
vn 1.5758975e-2 0.86999095 0.49281578
vn -0.13247857 0.85350970 0.50395497
vn -0.20763337 0.82650535 0.52323732
vn 1.1121990e-2 0.45517474 -0.89033267
vn 9.5913441e-3 0.52883387 -0.84867116
vn 5.2226450e-3 0.55705319 -0.83046040
vn -1.0792271e-2 0.52710572 -0.84973119
vn -1.3417295e-2 0.45501825 -0.89038103
vn -8.4909625e-3 0.44548212 0.89525057
vn -3.9613495e-3 0.51069661 0.85975187
vn 5.2889995e-3 0.53544815 0.84455154
vn 3.7937529e-3 0.50844043 0.86108881
vn 7.9865836e-3 0.44490203 0.89554363
vn 0.72709068 0.18815353 0.66025555
vn 0.73303299 0.18877720 -0.65347212
vn -0.72195616 0.20963673 0.65941773
vn -0.72881728 0.21039527 -0.65158207
g Cube24_default
usemtl default
s 1
f 2//2 14//14 38//38 41//41
f 2//2 41//41 42//42 1//1
f 3//3 42//42 41//41 4//4
f 4//4 24//24 19//19 3//3
f 4//4 41//41 38//38 24//24
f 5//5 13//13 29//29 40//40
f 5//5 40//40 39//39 6//6
f 7//7 23//23 28//28 8//8
f 7//7 40//40 29//29 23//23
f 8//8 39//39 40//40 7//7
f 9//9 33//33 32//32 10//10
f 10//10 32//32 31//31 11//11
f 11//11 31//31 30//30 12//12
f 12//12 30//30 29//29 13//13
f 15//15 37//37 38//38 14//14
f 16//16 36//36 37//37 15//15
f 17//17 35//35 36//36 16//16
f 18//18 34//34 35//35 17//17
f 19//19 24//24 25//25 20//20
f 19//19 33//33 42//42 3//3
f 20//20 25//25 26//26 21//21
f 20//20 32//32 33//33 19//19
f 21//21 26//26 27//27 22//22
f 21//21 31//31 32//32 20//20
f 22//22 27//27 28//28 23//23
f 22//22 30//30 31//31 21//21
f 23//23 29//29 30//30 22//22
f 24//24 38//38 37//37 25//25
f 25//25 37//37 36//36 26//26
f 26//26 36//36 35//35 27//27
f 27//27 35//35 34//34 28//28
f 28//28 34//34 39//39 8//8
f 39//39 34//34 18//18 6//6
f 42//42 33//33 9//9 1//1
